<svg xmlns="http://www.w3.org/2000/svg" width="1200" height="800" viewBox="0 0 1200 800">
  <defs>
    <linearGradient id="nightMarket" x1="0%" y1="0%" x2="0%" y2="100%">
      <stop offset="0%" stop-color="#1e1b4b" />
      <stop offset="60%" stop-color="#4c1d95" />
      <stop offset="100%" stop-color="#f97316" />
    </linearGradient>
    <linearGradient id="awning" x1="0%" y1="0%" x2="100%" y2="0%">
      <stop offset="0%" stop-color="#f97316" />
      <stop offset="50%" stop-color="#f59e0b" />
      <stop offset="100%" stop-color="#facc15" />
    </linearGradient>
    <radialGradient id="lantern" cx="50%" cy="50%" r="50%">
      <stop offset="0%" stop-color="#fde68a" />
      <stop offset="100%" stop-color="#fb923c" stop-opacity="0" />
    </radialGradient>
    <pattern id="bunting" width="140" height="80" patternUnits="userSpaceOnUse">
      <path d="M0 0 L70 40 L140 0 V80 H0 Z" fill="#facc15" opacity="0.7" />
      <path d="M0 0 L70 40 L140 0" fill="none" stroke="#f97316" stroke-width="8" opacity="0.8" />
      <path d="M0 40 L70 80 L140 40" fill="none" stroke="#fbbf24" stroke-width="8" opacity="0.4" />
    </pattern>
  </defs>
  <rect width="1200" height="800" fill="url(#nightMarket)" />
  <rect width="1200" height="200" fill="url(#bunting)" opacity="0.45" />
  <g transform="translate(140,220)">
    <rect width="920" height="360" rx="36" fill="#1f2937" opacity="0.7" />
    <rect x="0" y="0" width="920" height="120" rx="36" fill="url(#awning)" />
    <g transform="translate(60,120)">
      <rect width="200" height="220" rx="24" fill="#f97316" opacity="0.8" />
      <rect x="240" width="200" height="220" rx="24" fill="#22d3ee" opacity="0.8" />
      <rect x="480" width="200" height="220" rx="24" fill="#f472b6" opacity="0.8" />
      <rect x="720" width="140" height="220" rx="24" fill="#38bdf8" opacity="0.75" />
      <rect x="30" y="40" width="140" height="60" fill="#fef3c7" opacity="0.8" />
      <rect x="270" y="40" width="140" height="60" fill="#ecfeff" opacity="0.8" />
      <rect x="510" y="40" width="140" height="60" fill="#fce7f3" opacity="0.8" />
      <rect x="750" y="40" width="100" height="60" fill="#e0f2fe" opacity="0.8" />
    </g>
  </g>
  <g>
    <circle cx="200" cy="520" r="90" fill="url(#lantern)" opacity="0.6" />
    <circle cx="600" cy="480" r="110" fill="url(#lantern)" opacity="0.55" />
    <circle cx="980" cy="540" r="80" fill="url(#lantern)" opacity="0.65" />
  </g>
  <text x="50%" y="720" font-family="'Segoe UI', 'Helvetica Neue', sans-serif" font-size="46" fill="#fff7ed" text-anchor="middle" opacity="0.35">Shuk Nights</text>
</svg>
