<svg xmlns="http://www.w3.org/2000/svg" width="1200" height="800" viewBox="0 0 1200 800">
  <defs>
    <linearGradient id="twilight" x1="0%" y1="0%" x2="0%" y2="100%">
      <stop offset="0%" stop-color="#0f172a" />
      <stop offset="50%" stop-color="#1e293b" />
      <stop offset="100%" stop-color="#facc15" />
    </linearGradient>
    <linearGradient id="saltMirror" x1="0%" y1="0%" x2="100%" y2="0%">
      <stop offset="0%" stop-color="#fef3c7" />
      <stop offset="50%" stop-color="#fef08a" />
      <stop offset="100%" stop-color="#fde68a" />
    </linearGradient>
    <linearGradient id="ridge" x1="0%" y1="0%" x2="100%" y2="0%">
      <stop offset="0%" stop-color="#f97316" />
      <stop offset="100%" stop-color="#ea580c" />
    </linearGradient>
    <pattern id="saltCrystals" width="60" height="60" patternUnits="userSpaceOnUse">
      <polygon points="0,20 20,0 40,20 20,40" fill="#fef9c3" opacity="0.35" />
      <polygon points="20,40 40,20 60,40 40,60" fill="#fee2e2" opacity="0.25" />
    </pattern>
  </defs>
  <rect width="1200" height="800" fill="url(#twilight)" />
  <ellipse cx="600" cy="420" rx="320" ry="200" fill="#fde68a" opacity="0.5" />
  <path d="M0 420 Q220 380 440 420 T880 420 T1200 420 V800 H0 Z" fill="url(#ridge)" opacity="0.9" />
  <path d="M0 470 Q240 430 480 470 T960 470 T1200 480 V800 H0 Z" fill="#b45309" opacity="0.75" />
  <rect y="520" width="1200" height="180" fill="url(#saltMirror)" />
  <rect y="520" width="1200" height="180" fill="url(#saltCrystals)" />
  <path d="M0 620 Q200 600 400 620 T800 610 T1200 630 V800 H0 Z" fill="#fefce8" opacity="0.7" />
  <text x="50%" y="720" font-family="'Segoe UI', 'Helvetica Neue', sans-serif" font-size="44" fill="#422006" text-anchor="middle" opacity="0.4">Dead Sea Stillness</text>
</svg>
