<svg xmlns="http://www.w3.org/2000/svg" width="800" height="600" viewBox="0 0 800 600">
  <defs>
    <linearGradient id="faithStone" x1="0%" y1="0%" x2="100%" y2="100%">
      <stop offset="0%" stop-color="#f59e0b" />
      <stop offset="100%" stop-color="#78350f" />
    </linearGradient>
    <pattern id="faithBlocks" width="80" height="60" patternUnits="userSpaceOnUse">
      <rect width="80" height="60" fill="url(#faithStone)" />
      <rect width="80" height="60" fill="#f97316" opacity="0.1" />
      <line x1="0" y1="30" x2="80" y2="30" stroke="#7f1d1d" stroke-width="4" stroke-opacity="0.2" />
      <line x1="40" y1="0" x2="40" y2="30" stroke="#7f1d1d" stroke-width="4" stroke-opacity="0.2" />
      <line x1="20" y1="30" x2="20" y2="60" stroke="#7f1d1d" stroke-width="4" stroke-opacity="0.2" />
      <line x1="60" y1="30" x2="60" y2="60" stroke="#7f1d1d" stroke-width="4" stroke-opacity="0.2" />
    </pattern>
    <radialGradient id="faithGlow" cx="50%" cy="30%" r="50%">
      <stop offset="0%" stop-color="#fde68a" stop-opacity="0.8" />
      <stop offset="100%" stop-color="#fde68a" stop-opacity="0" />
    </radialGradient>
  </defs>
  <rect width="800" height="600" fill="#431407" />
  <rect width="800" height="360" fill="url(#faithBlocks)" />
  <circle cx="400" cy="200" r="180" fill="url(#faithGlow)" />
  <g fill="#fef3c7" opacity="0.85">
    <rect x="180" y="160" width="60" height="260" rx="20" />
    <rect x="560" y="160" width="60" height="260" rx="20" />
    <rect x="320" y="120" width="60" height="300" rx="22" />
    <rect x="420" y="120" width="60" height="300" rx="22" />
  </g>
  <path d="M140 420 H660" stroke="#fde68a" stroke-width="12" stroke-linecap="round" opacity="0.5" />
  <text x="50%" y="520" font-family="'Segoe UI', 'Helvetica Neue', sans-serif" font-size="40" fill="#fef3c7" text-anchor="middle" opacity="0.4">Jerusalem Stone Faith</text>
</svg>
